<mxfile host="app.diagrams.net" modified="2023-06-08T18:24:08.723Z" agent="Mozilla/5.0 (Windows NT 10.0; Win64; x64; rv:109.0) Gecko/20100101 Firefox/113.0" etag="uzM0AsJDGgai-i1JAodb" version="21.3.4" type="dropbox" pages="3">
  <diagram id="3PgItJ6A_8THoUIpkEhh" name="systeme">
    <mxGraphModel dx="1274" dy="677" grid="1" gridSize="10" guides="1" tooltips="1" connect="1" arrows="1" fold="1" page="1" pageScale="1" pageWidth="827" pageHeight="1169" math="0" shadow="0">
      <root>
        <mxCell id="0" />
        <mxCell id="1" parent="0" />
        <mxCell id="beliY8hhXIxbec1V9qNc-1" value="" style="ellipse;whiteSpace=wrap;html=1;" parent="1" vertex="1">
          <mxGeometry x="270" y="350" width="190" height="120" as="geometry" />
        </mxCell>
        <mxCell id="beliY8hhXIxbec1V9qNc-2" value="&lt;b&gt;système&lt;/b&gt;" style="ellipse;whiteSpace=wrap;html=1;fillColor=#f5f5f5;fontColor=#333333;strokeColor=#666666;" parent="1" vertex="1">
          <mxGeometry x="286" y="375" width="60" height="40" as="geometry" />
        </mxCell>
        <mxCell id="beliY8hhXIxbec1V9qNc-3" value="&lt;b&gt;milieu extérieur&lt;/b&gt;" style="text;html=1;align=center;verticalAlign=middle;resizable=0;points=[];autosize=1;strokeColor=none;fillColor=none;" parent="1" vertex="1">
          <mxGeometry x="330" y="410" width="120" height="30" as="geometry" />
        </mxCell>
        <mxCell id="beliY8hhXIxbec1V9qNc-4" value="&lt;b&gt;UNIVERS&lt;/b&gt;" style="text;html=1;align=center;verticalAlign=middle;resizable=0;points=[];autosize=1;strokeColor=none;fillColor=none;" parent="1" vertex="1">
          <mxGeometry x="330" y="320" width="70" height="30" as="geometry" />
        </mxCell>
      </root>
    </mxGraphModel>
  </diagram>
  <diagram id="9Tdn6SvoWi4cBgeEJAIB" name="fonction etat">
    <mxGraphModel dx="1274" dy="677" grid="1" gridSize="10" guides="1" tooltips="1" connect="1" arrows="1" fold="1" page="1" pageScale="1" pageWidth="827" pageHeight="1169" math="0" shadow="0">
      <root>
        <mxCell id="0" />
        <mxCell id="1" parent="0" />
        <mxCell id="CPy05RYdHouDgrwpxsAY-1" value="&lt;div&gt;&lt;b&gt;état 1:&lt;/b&gt;&lt;/div&gt;&lt;div&gt;eau solide&lt;/div&gt;&lt;div&gt;&amp;nbsp;T&lt;sub&gt;1&lt;/sub&gt; = -20°C&lt;br&gt;&lt;/div&gt;" style="rounded=1;whiteSpace=wrap;html=1;fillColor=#f5f5f5;fontColor=#333333;strokeColor=#666666;strokeWidth=2;" parent="1" vertex="1">
          <mxGeometry x="110" y="210" width="130" height="50" as="geometry" />
        </mxCell>
        <mxCell id="CPy05RYdHouDgrwpxsAY-5" value="ΔU ?" style="text;html=1;align=center;verticalAlign=middle;resizable=0;points=[];autosize=1;strokeColor=none;fillColor=none;fontStyle=1" parent="1" vertex="1">
          <mxGeometry x="290" y="210" width="50" height="30" as="geometry" />
        </mxCell>
        <mxCell id="CPy05RYdHouDgrwpxsAY-7" value="&lt;div&gt;&lt;b&gt;état 2:&lt;/b&gt;&lt;/div&gt;&lt;div&gt;eau liquide&lt;/div&gt;&lt;div&gt;T&lt;sub&gt;2&lt;/sub&gt; =&amp;nbsp; 12°C&lt;br&gt;&lt;/div&gt;" style="rounded=1;whiteSpace=wrap;html=1;fillColor=#f5f5f5;fontColor=#333333;strokeColor=#666666;strokeWidth=2;" parent="1" vertex="1">
          <mxGeometry x="390" y="210" width="130" height="50" as="geometry" />
        </mxCell>
        <mxCell id="CPy05RYdHouDgrwpxsAY-8" value="" style="endArrow=classic;html=1;rounded=0;exitX=1;exitY=0.5;exitDx=0;exitDy=0;entryX=0;entryY=0.5;entryDx=0;entryDy=0;strokeWidth=1.5;" parent="1" source="CPy05RYdHouDgrwpxsAY-1" target="CPy05RYdHouDgrwpxsAY-7" edge="1">
          <mxGeometry width="50" height="50" relative="1" as="geometry">
            <mxPoint x="390" y="320" as="sourcePoint" />
            <mxPoint x="440" y="270" as="targetPoint" />
          </mxGeometry>
        </mxCell>
        <mxCell id="CPy05RYdHouDgrwpxsAY-9" value="&lt;div&gt;&lt;b&gt;état intermédiaire 1:&lt;/b&gt;&lt;/div&gt;&lt;div&gt;eau solide à 0°C&lt;br&gt;&lt;/div&gt;" style="rounded=1;whiteSpace=wrap;html=1;fillColor=#f5f5f5;fontColor=#333333;strokeColor=#666666;strokeWidth=2;dashed=1;" parent="1" vertex="1">
          <mxGeometry x="110" y="350" width="130" height="50" as="geometry" />
        </mxCell>
        <mxCell id="CPy05RYdHouDgrwpxsAY-11" value="&lt;div&gt;&lt;b&gt;état intermédiaire 2:&lt;/b&gt;&lt;/div&gt;&lt;div&gt;eau liquide à 0°C&lt;br&gt;&lt;/div&gt;" style="rounded=1;whiteSpace=wrap;html=1;fillColor=#f5f5f5;fontColor=#333333;strokeColor=#666666;strokeWidth=2;dashed=1;" parent="1" vertex="1">
          <mxGeometry x="390" y="350" width="130" height="50" as="geometry" />
        </mxCell>
        <mxCell id="CPy05RYdHouDgrwpxsAY-13" value="" style="endArrow=classic;html=1;rounded=0;entryX=0.5;entryY=0;entryDx=0;entryDy=0;strokeWidth=1.5;dashed=1;exitX=0.5;exitY=1;exitDx=0;exitDy=0;" parent="1" source="CPy05RYdHouDgrwpxsAY-1" target="CPy05RYdHouDgrwpxsAY-9" edge="1">
          <mxGeometry width="50" height="50" relative="1" as="geometry">
            <mxPoint x="210" y="290" as="sourcePoint" />
            <mxPoint x="400" y="245" as="targetPoint" />
          </mxGeometry>
        </mxCell>
        <mxCell id="CPy05RYdHouDgrwpxsAY-14" value="" style="endArrow=classic;html=1;rounded=0;entryX=0;entryY=0.5;entryDx=0;entryDy=0;strokeWidth=1.5;dashed=1;exitX=1;exitY=0.5;exitDx=0;exitDy=0;" parent="1" source="CPy05RYdHouDgrwpxsAY-9" target="CPy05RYdHouDgrwpxsAY-11" edge="1">
          <mxGeometry width="50" height="50" relative="1" as="geometry">
            <mxPoint x="185" y="270" as="sourcePoint" />
            <mxPoint x="185" y="360" as="targetPoint" />
          </mxGeometry>
        </mxCell>
        <mxCell id="CPy05RYdHouDgrwpxsAY-15" value="" style="endArrow=classic;html=1;rounded=0;entryX=0.5;entryY=1;entryDx=0;entryDy=0;strokeWidth=1.5;dashed=1;" parent="1" source="CPy05RYdHouDgrwpxsAY-11" target="CPy05RYdHouDgrwpxsAY-7" edge="1">
          <mxGeometry width="50" height="50" relative="1" as="geometry">
            <mxPoint x="250" y="385" as="sourcePoint" />
            <mxPoint x="400" y="385" as="targetPoint" />
          </mxGeometry>
        </mxCell>
        <mxCell id="CPy05RYdHouDgrwpxsAY-16" value="ΔU&lt;sub&gt;1&lt;/sub&gt; = mc&lt;sub&gt;g&lt;/sub&gt;(0 - T&lt;sub&gt;1&lt;/sub&gt;)" style="text;html=1;align=center;verticalAlign=middle;resizable=0;points=[];autosize=1;strokeColor=none;fillColor=none;fontStyle=1" parent="1" vertex="1">
          <mxGeometry x="50" y="290" width="120" height="30" as="geometry" />
        </mxCell>
        <mxCell id="CPy05RYdHouDgrwpxsAY-17" value="ΔU&lt;sub&gt;2&lt;/sub&gt; = mL&lt;sub&gt;f&lt;/sub&gt;" style="text;html=1;align=center;verticalAlign=middle;resizable=0;points=[];autosize=1;strokeColor=none;fillColor=none;fontStyle=1" parent="1" vertex="1">
          <mxGeometry x="270" y="350" width="80" height="30" as="geometry" />
        </mxCell>
        <mxCell id="CPy05RYdHouDgrwpxsAY-19" value="ΔU&lt;sub&gt;3&lt;/sub&gt; = mc&lt;sub&gt;eau&lt;/sub&gt;( T&lt;sub&gt;2&lt;/sub&gt; - 0 )" style="text;html=1;align=center;verticalAlign=middle;resizable=0;points=[];autosize=1;strokeColor=none;fillColor=none;fontStyle=1" parent="1" vertex="1">
          <mxGeometry x="455" y="290" width="140" height="30" as="geometry" />
        </mxCell>
      </root>
    </mxGraphModel>
  </diagram>
  <diagram id="Bnxbj2QjJunb8jZIPXDl" name="machine thermique">
    <mxGraphModel dx="2101" dy="677" grid="1" gridSize="10" guides="1" tooltips="1" connect="1" arrows="1" fold="1" page="1" pageScale="1" pageWidth="827" pageHeight="1169" math="0" shadow="0">
      <root>
        <mxCell id="0" />
        <mxCell id="1" parent="0" />
        <mxCell id="v67GH85FPBUIDXGFmw---1" value="&lt;b&gt;&lt;font style=&quot;font-size: 13px;&quot;&gt;1. Evaporateur&lt;/font&gt;&lt;/b&gt;" style="rounded=1;whiteSpace=wrap;html=1;strokeWidth=1.5;" parent="1" vertex="1">
          <mxGeometry x="67" y="310" width="120" height="60" as="geometry" />
        </mxCell>
        <mxCell id="v67GH85FPBUIDXGFmw---2" value="&lt;b&gt;&lt;font style=&quot;font-size: 13px;&quot;&gt;3. Condenseur&lt;/font&gt;&lt;/b&gt;" style="rounded=1;whiteSpace=wrap;html=1;strokeWidth=1.5;" parent="1" vertex="1">
          <mxGeometry x="497" y="310" width="120" height="60" as="geometry" />
        </mxCell>
        <mxCell id="v67GH85FPBUIDXGFmw---4" value="&lt;b&gt;&lt;font style=&quot;font-size: 13px;&quot;&gt;2. Compresseur&lt;br&gt;&lt;/font&gt;&lt;/b&gt;" style="ellipse;whiteSpace=wrap;html=1;fontSize=13;strokeWidth=1.5;" parent="1" vertex="1">
          <mxGeometry x="287" y="190" width="120" height="80" as="geometry" />
        </mxCell>
        <mxCell id="v67GH85FPBUIDXGFmw---5" value="&lt;b&gt;&lt;font style=&quot;font-size: 13px;&quot;&gt;4. Détendeur&lt;br&gt;&lt;/font&gt;&lt;/b&gt;" style="ellipse;whiteSpace=wrap;html=1;fontSize=13;strokeWidth=1.5;" parent="1" vertex="1">
          <mxGeometry x="287" y="410" width="120" height="80" as="geometry" />
        </mxCell>
        <mxCell id="v67GH85FPBUIDXGFmw---6" value="&lt;div style=&quot;font-size: 12px;&quot;&gt;&lt;i style=&quot;font-size: 12px;&quot;&gt;liquide basse pression&lt;/i&gt;&lt;/div&gt;&lt;div style=&quot;font-size: 12px;&quot;&gt;&lt;br style=&quot;font-size: 12px;&quot;&gt;&lt;/div&gt;" style="text;html=1;align=center;verticalAlign=middle;resizable=0;points=[];autosize=1;strokeColor=none;fillColor=none;fontSize=12;" parent="1" vertex="1">
          <mxGeometry x="120" y="450" width="140" height="40" as="geometry" />
        </mxCell>
        <mxCell id="v67GH85FPBUIDXGFmw---7" value="&lt;div style=&quot;font-size: 12px;&quot;&gt;&lt;i style=&quot;font-size: 12px;&quot;&gt;vapeur basse pression&lt;/i&gt;&lt;/div&gt;&lt;div style=&quot;font-size: 12px;&quot;&gt;&lt;br style=&quot;font-size: 12px;&quot;&gt;&lt;/div&gt;" style="text;html=1;align=center;verticalAlign=middle;resizable=0;points=[];autosize=1;strokeColor=none;fillColor=none;fontSize=12;" parent="1" vertex="1">
          <mxGeometry x="120" y="204" width="140" height="40" as="geometry" />
        </mxCell>
        <mxCell id="v67GH85FPBUIDXGFmw---8" value="&lt;div style=&quot;font-size: 12px;&quot;&gt;&lt;i style=&quot;font-size: 12px;&quot;&gt;vapeur haute pression&lt;/i&gt;&lt;/div&gt;&lt;div style=&quot;font-size: 12px;&quot;&gt;&lt;br style=&quot;font-size: 12px;&quot;&gt;&lt;/div&gt;" style="text;html=1;align=center;verticalAlign=middle;resizable=0;points=[];autosize=1;strokeColor=none;fillColor=none;fontSize=12;" parent="1" vertex="1">
          <mxGeometry x="427" y="204" width="140" height="40" as="geometry" />
        </mxCell>
        <mxCell id="v67GH85FPBUIDXGFmw---9" value="&lt;div style=&quot;font-size: 12px;&quot;&gt;&lt;i style=&quot;font-size: 12px;&quot;&gt;liquide haute pression&lt;/i&gt;&lt;/div&gt;&lt;div style=&quot;font-size: 12px;&quot;&gt;&lt;br style=&quot;font-size: 12px;&quot;&gt;&lt;/div&gt;" style="text;html=1;align=center;verticalAlign=middle;resizable=0;points=[];autosize=1;strokeColor=none;fillColor=none;fontSize=12;" parent="1" vertex="1">
          <mxGeometry x="427" y="450" width="140" height="40" as="geometry" />
        </mxCell>
        <mxCell id="v67GH85FPBUIDXGFmw---10" value="Source froide" style="text;html=1;align=center;verticalAlign=middle;resizable=0;points=[];autosize=1;strokeColor=none;fillColor=none;fontSize=13;" parent="1" vertex="1">
          <mxGeometry x="-133" y="325" width="100" height="30" as="geometry" />
        </mxCell>
        <mxCell id="v67GH85FPBUIDXGFmw---11" value="Source chaude" style="text;html=1;align=center;verticalAlign=middle;resizable=0;points=[];autosize=1;strokeColor=none;fillColor=none;fontSize=13;" parent="1" vertex="1">
          <mxGeometry x="717" y="325" width="110" height="30" as="geometry" />
        </mxCell>
        <mxCell id="v67GH85FPBUIDXGFmw---12" value="" style="endArrow=classic;html=1;rounded=0;fontSize=12;entryX=0;entryY=0.5;entryDx=0;entryDy=0;exitX=0.5;exitY=0;exitDx=0;exitDy=0;strokeWidth=1.5;endFill=1;startArrow=none;startFill=0;" parent="1" source="v67GH85FPBUIDXGFmw---1" target="v67GH85FPBUIDXGFmw---4" edge="1">
          <mxGeometry width="50" height="50" relative="1" as="geometry">
            <mxPoint x="167" y="280" as="sourcePoint" />
            <mxPoint x="547" y="310" as="targetPoint" />
            <Array as="points">
              <mxPoint x="127" y="230" />
            </Array>
          </mxGeometry>
        </mxCell>
        <mxCell id="v67GH85FPBUIDXGFmw---13" value="" style="endArrow=classic;html=1;rounded=0;fontSize=12;exitX=1;exitY=0.5;exitDx=0;exitDy=0;entryX=0.5;entryY=0;entryDx=0;entryDy=0;strokeWidth=1.5;startArrow=none;startFill=0;endFill=1;" parent="1" source="v67GH85FPBUIDXGFmw---4" target="v67GH85FPBUIDXGFmw---2" edge="1">
          <mxGeometry width="50" height="50" relative="1" as="geometry">
            <mxPoint x="497" y="360" as="sourcePoint" />
            <mxPoint x="547" y="310" as="targetPoint" />
            <Array as="points">
              <mxPoint x="557" y="230" />
            </Array>
          </mxGeometry>
        </mxCell>
        <mxCell id="v67GH85FPBUIDXGFmw---14" value="" style="endArrow=classic;html=1;rounded=0;fontSize=12;entryX=1;entryY=0.5;entryDx=0;entryDy=0;exitX=0.5;exitY=1;exitDx=0;exitDy=0;strokeWidth=1.5;endFill=1;startArrow=none;startFill=0;" parent="1" source="v67GH85FPBUIDXGFmw---2" target="v67GH85FPBUIDXGFmw---5" edge="1">
          <mxGeometry width="50" height="50" relative="1" as="geometry">
            <mxPoint x="497" y="360" as="sourcePoint" />
            <mxPoint x="547" y="310" as="targetPoint" />
            <Array as="points">
              <mxPoint x="557" y="450" />
            </Array>
          </mxGeometry>
        </mxCell>
        <mxCell id="v67GH85FPBUIDXGFmw---15" value="" style="endArrow=classic;html=1;rounded=0;fontSize=12;entryX=0.5;entryY=1;entryDx=0;entryDy=0;exitX=0;exitY=0.5;exitDx=0;exitDy=0;strokeWidth=1.5;endFill=1;startArrow=none;startFill=0;" parent="1" source="v67GH85FPBUIDXGFmw---5" target="v67GH85FPBUIDXGFmw---1" edge="1">
          <mxGeometry width="50" height="50" relative="1" as="geometry">
            <mxPoint x="497" y="360" as="sourcePoint" />
            <mxPoint x="547" y="310" as="targetPoint" />
            <Array as="points">
              <mxPoint x="127" y="450" />
            </Array>
          </mxGeometry>
        </mxCell>
        <mxCell id="v67GH85FPBUIDXGFmw---16" value="" style="shape=flexArrow;endArrow=classic;html=1;rounded=0;strokeWidth=1.5;fontSize=12;dashed=1;dashPattern=1 1;" parent="1" edge="1">
          <mxGeometry width="50" height="50" relative="1" as="geometry">
            <mxPoint x="632" y="339.5" as="sourcePoint" />
            <mxPoint x="722" y="340" as="targetPoint" />
          </mxGeometry>
        </mxCell>
        <mxCell id="v67GH85FPBUIDXGFmw---18" value="" style="shape=flexArrow;endArrow=classic;html=1;rounded=0;strokeWidth=1.5;fontSize=12;dashed=1;dashPattern=1 1;" parent="1" edge="1">
          <mxGeometry width="50" height="50" relative="1" as="geometry">
            <mxPoint x="-38" y="339.5" as="sourcePoint" />
            <mxPoint x="52" y="340" as="targetPoint" />
          </mxGeometry>
        </mxCell>
        <mxCell id="v67GH85FPBUIDXGFmw---19" value="" style="shape=flexArrow;endArrow=classic;html=1;rounded=0;strokeWidth=1.5;fontSize=12;dashed=1;dashPattern=1 1;" parent="1" edge="1">
          <mxGeometry x="-0.25" y="-380" width="50" height="50" relative="1" as="geometry">
            <mxPoint x="347" y="130" as="sourcePoint" />
            <mxPoint x="346.5" y="180" as="targetPoint" />
            <mxPoint as="offset" />
          </mxGeometry>
        </mxCell>
        <mxCell id="v67GH85FPBUIDXGFmw---20" value="Q&lt;sub style=&quot;font-size: 16px;&quot;&gt;c&lt;/sub&gt;" style="text;html=1;align=center;verticalAlign=middle;resizable=0;points=[];autosize=1;strokeColor=none;fillColor=none;fontSize=16;fontStyle=1" parent="1" vertex="1">
          <mxGeometry x="647" y="300" width="40" height="40" as="geometry" />
        </mxCell>
        <mxCell id="v67GH85FPBUIDXGFmw---21" value="Q&lt;sub style=&quot;font-size: 16px;&quot;&gt;f&lt;/sub&gt;" style="text;html=1;align=center;verticalAlign=middle;resizable=0;points=[];autosize=1;strokeColor=none;fillColor=none;fontSize=16;fontStyle=1" parent="1" vertex="1">
          <mxGeometry x="-23" y="300" width="40" height="40" as="geometry" />
        </mxCell>
        <mxCell id="v67GH85FPBUIDXGFmw---22" value="W" style="text;html=1;align=center;verticalAlign=middle;resizable=0;points=[];autosize=1;strokeColor=none;fillColor=none;fontSize=16;fontStyle=1" parent="1" vertex="1">
          <mxGeometry x="357" y="130" width="40" height="30" as="geometry" />
        </mxCell>
      </root>
    </mxGraphModel>
  </diagram>
</mxfile>
